<?xml version="1.0" standalone="no"?>
<!DOCTYPE svg PUBLIC "-//W3C//DTD SVG 20010904//EN"
 "http://www.w3.org/TR/2001/REC-SVG-20010904/DTD/svg10.dtd">
<svg version="1.0" xmlns="http://www.w3.org/2000/svg"
 width="512.000000pt" height="512.000000pt" viewBox="0 0 512.000000 512.000000"
 preserveAspectRatio="xMidYMid meet">
<metadata>
Created by potrace 1.14, written by Peter Selinger 2001-2017
</metadata>
<g transform="translate(0.000000,512.000000) scale(0.100000,-0.100000)"
fill="#000000" stroke="none">
<path d="M2495 5103 c-41 -22 -72 -60 -79 -96 -3 -16 -6 -238 -6 -493 l0 -464
-22 -1 c-13 0 -30 -2 -38 -4 -8 -1 -33 -6 -54 -9 -538 -87 -1019 -517 -1174
-1051 -46 -155 -57 -242 -56 -435 1 -173 5 -208 37 -346 18 -74 55 -181 88
-252 22 -46 39 -86 39 -88 0 -8 84 -139 125 -194 105 -143 252 -279 411 -382
142 -91 361 -175 539 -205 l105 -17 0 -475 0 -474 25 -42 c53 -92 185 -99 246
-14 22 31 24 46 29 176 l5 142 110 -64 c118 -70 166 -80 223 -51 89 46 112
164 47 237 -10 10 -100 66 -201 125 l-184 106 0 731 0 732 515 -515 c283 -283
515 -521 515 -529 0 -7 -23 -98 -50 -202 -28 -104 -50 -203 -50 -221 0 -48 31
-100 76 -125 48 -28 86 -29 139 -3 53 26 75 66 110 203 l28 108 91 -90 c97
-95 129 -110 200 -97 88 17 140 118 104 203 -6 15 -49 67 -95 114 l-84 86 108
27 c137 36 177 58 203 111 26 53 25 91 -3 139 -26 45 -77 76 -127 76 -19 0
-118 -23 -220 -50 -101 -28 -191 -50 -200 -50 -8 0 -247 232 -530 515 l-515
515 733 -2 734 -3 101 -176 c118 -205 120 -207 170 -229 98 -44 207 30 207
139 0 38 -11 65 -64 156 l-64 110 143 5 c160 6 180 13 217 80 24 43 20 119 -9
158 -37 51 -75 62 -220 62 l-133 0 21 38 c12 20 39 68 62 106 48 83 57 140 33
194 -21 45 -51 69 -104 80 -46 11 -104 -5 -135 -37 -11 -11 -66 -100 -123
-198 l-103 -178 -733 -3 -733 -2 518 518 518 518 197 -53 c218 -59 268 -63
318 -24 36 28 63 77 64 115 0 39 -35 110 -64 129 -13 9 -78 30 -144 48 l-122
32 89 92 c68 70 91 101 96 129 22 116 -65 203 -182 181 -29 -5 -58 -27 -129
-96 l-91 -90 -33 125 c-35 133 -55 167 -116 192 -48 20 -82 17 -129 -11 -47
-27 -75 -75 -75 -127 0 -18 24 -122 53 -230 l53 -197 -518 -518 -518 -518 2
733 3 733 184 107 c101 59 193 119 204 133 74 101 2 239 -125 239 -35 0 -64
-13 -153 -65 l-110 -64 -5 144 c-4 125 -8 147 -26 172 -43 58 -128 79 -189 46z"/>
<path d="M1620 4936 c-49 -15 -74 -35 -94 -73 -28 -55 -20 -95 55 -281 40 -98
77 -190 83 -207 47 -127 99 -178 176 -174 53 3 114 41 131 82 25 60 15 104
-83 342 -107 261 -112 269 -153 294 -42 26 -75 31 -115 17z"/>
<path d="M813 4406 c-93 -32 -134 -139 -85 -218 12 -18 106 -116 209 -218 194
-191 195 -192 275 -192 36 0 95 38 113 73 22 41 25 89 8 129 -13 33 -340 371
-393 407 -35 23 -90 31 -127 19z"/>
<path d="M301 3619 c-93 -20 -149 -127 -107 -207 24 -46 57 -67 176 -116 63
-26 124 -51 135 -56 87 -40 226 -92 256 -95 108 -14 197 104 151 200 -24 51
-52 73 -131 106 -183 75 -247 101 -266 109 -126 55 -173 68 -214 59z"/>
<path d="M76 2686 c-68 -41 -91 -111 -61 -182 17 -42 31 -56 72 -78 27 -14 72
-16 305 -16 238 1 277 3 305 18 99 54 110 185 20 253 -32 24 -33 24 -317 27
l-285 2 -39 -24z"/>
<path d="M502 1890 c-134 -54 -257 -109 -273 -122 -110 -92 -34 -270 109 -256
53 6 502 186 534 215 27 23 48 74 48 114 0 41 -35 102 -70 123 -62 36 -89 31
-348 -74z"/>
<path d="M1165 1340 c-17 -4 -42 -14 -55 -23 -34 -23 -362 -355 -384 -389 -32
-49 -20 -135 26 -178 47 -45 128 -55 177 -24 40 26 369 355 393 392 68 109
-31 250 -157 222z"/>
<path d="M1783 917 c-50 -15 -80 -55 -134 -183 -28 -65 -52 -123 -53 -129 -3
-11 -7 -20 -62 -152 -51 -123 -45 -189 22 -242 33 -26 105 -37 143 -21 54 22
79 64 176 300 110 264 119 309 76 368 -39 55 -104 78 -168 59z"/>
</g>
</svg>
